<svg width="805" height="271" viewBox="0 0 805 271" fill="none" xmlns="http://www.w3.org/2000/svg">
<g clip-path="url(#clip0_7_20)">
<path d="M204.5 40.5L200.04 64.07C198.57 71.86 191.76 77.5 183.83 77.5H139C136.56 77.36 123.36 76.88 112.5 86.5C102 95.81 101.21 110.95 101 113.5L91.95 180.54C90.88 188.46 97.03 195.5 105.02 195.5H145L153.93 144.57H136.98C133.65 144.57 131.19 141.49 131.91 138.25L137.44 113.5H191.07L169.36 230.5H93.5C89.49 229.57 77.2 226.18 67.5 214.5C56.81 201.63 56.47 187.37 56.5 183.5C62.17 149.5 68.33 115.5 74 81.5C76.51 75.74 81.97 64.19 94.5 54.5C108.6 43.59 123.1 41.17 129.36 40.5H204.5Z" fill="#FF2A2A" stroke="#FF2A2A" stroke-miterlimit="10"/>
<path d="M211.22 40.5L192.51 142.86H259.85C268.27 142.86 274.75 150.31 273.57 158.65L270.59 179.8C269.32 188.81 261.61 195.5 252.51 195.5H182.01L175.8 230.5H265.51C269.89 229.32 279.36 226.12 288.01 217.5C296.46 209.07 299.7 199.86 300.94 195.5C303.3 181.83 305.65 168.17 308.01 154.5C308.28 152.25 309.77 137.69 299.01 125.5C287.76 112.76 272.22 112.94 270.08 113H229.51L236.01 75.5H298.49C308.14 75.5 316.48 68.78 318.54 59.36L322.66 40.5H211.23H211.22Z" fill="#FF2A2A" stroke="#FF2A2A" stroke-miterlimit="10"/>
</g>
<path d="M342 211.906V140.537L354.202 121.443H393.207V144.294H358.802V208.15H382.605V185.612H368.003V164.796H397.407V231H354.202L342 211.906Z" fill="black"/>
<path d="M405.664 212.219V180.917L440.269 179.352V165.266H407.664V143.355H445.069L457.071 162.136V231H417.666L405.664 212.219ZM422.466 195.316V210.028H440.269V192.186L422.466 195.316Z" fill="black"/>
<path d="M466.633 143.355H536.643L549.044 162.762V231H532.542V164.796H515.94V231H499.738V164.796H483.135V231H466.633V143.355Z" fill="black"/>
<path d="M558.638 231V121.443H606.644V145.233H575.44V174.03H604.644V196.881H575.44V231H558.638Z" fill="black"/>
<path d="M614.407 231V143.355H631.209V231H614.407ZM614.407 135.216V118H631.209V135.216H614.407Z" fill="black"/>
<path d="M649.279 231L636.677 143.355H653.879L661.48 209.089H668.681L676.382 143.355H693.285L680.683 231H649.279Z" fill="black"/>
<path d="M697.993 213.158V161.197L709.395 143.355H749V192.812H714.795V209.089H747V231H709.395L697.993 213.158ZM714.795 179.978L734.798 178.413V163.388H714.795V179.978Z" fill="black"/>
<defs>
<clipPath id="clip0_7_20">
<rect width="267.27" height="191" fill="white" transform="translate(56 40)"/>
</clipPath>
</defs>
</svg>
